<svg xmlns="http://www.w3.org/2000/svg" version="1.1" viewBox="-5.0 -10.0 110.0 135.0">
 <path d="m13.691 56.898c1.0703-0.89063 2.4688-1.2617 3.8398-1l35.879 6.6289c0.19141 0.039062 0.39062 0.011718 0.57031-0.058594l35.422-15.051c0.51172-0.21875 0.75-0.80078 0.53125-1.3086-0.21875-0.51172-0.80078-0.73828-1.3086-0.53125l-35.137 14.934-37.672-6.9609c-2.207-0.41016-3.8164-2.3516-3.8164-4.6016 0-1.3906 0.60938-2.6992 1.6797-3.5898 1.0703-0.89062 2.4609-1.25 3.8281-1h0.011719l35.879 6.6289c0.058593 0.011719 0.12109 0.019531 0.17969 0.019531 0.039063 0 0.078125-0.019531 0.12109-0.019531 0.058593-0.011719 0.10938-0.019531 0.17188-0.03125 0.03125-0.011719 0.070312-0.011719 0.10156-0.019531l11.43-4.8594c0.019531-0.011719 0.039062-0.019531 0.058594-0.019531l23.93-10.172c0.39844-0.17188 0.64844-0.57812 0.60156-1.0117-0.039063-0.42969-0.35938-0.78906-0.78125-0.87891l-36.898-8.0508c-0.21094-0.039062-0.42969-0.019531-0.62109 0.058594l-37.441 16.734-0.011719 0.011719c-0.66016 0.26172-1.2812 0.62109-1.8281 1.0781-1.5312 1.2695-2.3984 3.1406-2.3984 5.1289 0 2.4414 1.3203 4.6094 3.3398 5.7812-0.32031 0.19141-0.64062 0.39844-0.92969 0.64062-1.5312 1.2695-2.3984 3.1406-2.3984 5.1406 0 3.2188 2.3008 5.9805 5.4609 6.5586l37.941 7.0117c0.058594 0.011718 0.12109 0.019531 0.17969 0.019531 0.12891 0 0.26953-0.03125 0.39062-0.078125l35.422-15.051c0.51172-0.21875 0.75-0.80078 0.53125-1.3086-0.21875-0.51172-0.80078-0.73828-1.3086-0.53125l-35.172 14.91-37.641-6.9492c-2.2188-0.41016-3.8281-2.3398-3.8281-4.6016 0-1.3984 0.62109-2.7109 1.6914-3.6016zm38.52-28.938 33.512 7.3086-7.9883 3.3984-33.059-7.3281zm-10.609 4.7383 32.961 7.3086-9.6211 4.0898-32.641-7.2383zm-12.371 5.5312 32.539 7.2109-8.3008 3.5312-34.148-6.3086z" fill="#8e51ff"/>
</svg>